<svg width="40" height="40" viewBox="0 0 40 40" fill="none" xmlns="http://www.w3.org/2000/svg">
<circle cx="20" cy="20" r="20" fill="#418DFF"/>
<path fill-rule="evenodd" clip-rule="evenodd" d="M19.9377 11.4375C17.3821 11.4375 15.3294 13.4902 15.3294 16.0458C15.3294 18.602 17.382 20.6549 19.9377 20.6549C22.4934 20.6549 24.5459 18.602 24.5459 16.0458C24.5459 13.4902 22.4932 11.4375 19.9377 11.4375ZM19.9377 12.9375C21.6648 12.9375 23.0459 14.3186 23.0459 16.0457C23.0459 17.7737 21.6649 19.1549 19.9377 19.1549C18.2105 19.1549 16.8294 17.7737 16.8294 16.0457C16.8294 14.3186 18.2106 12.9375 19.9377 12.9375ZM14.2899 12.3794C14.7041 12.3794 15.0399 12.7152 15.0399 13.1294C15.0399 13.5436 14.7041 13.8794 14.2899 13.8794C13.1016 13.8794 12.1378 14.8428 12.1378 16.0306C12.1378 17.2185 13.1016 18.1819 14.2899 18.1819C14.7041 18.1819 15.0399 18.5177 15.0399 18.9319C15.0399 19.3461 14.7041 19.6819 14.2899 19.6819C12.2733 19.6819 10.6378 18.0471 10.6378 16.0306C10.6378 14.0142 12.2733 12.3794 14.2899 12.3794ZM29.247 16.0306C29.247 14.0142 27.6115 12.3794 25.5948 12.3794C25.1806 12.3794 24.8448 12.7152 24.8448 13.1294C24.8448 13.5436 25.1806 13.8794 25.5948 13.8794C26.7832 13.8794 27.747 14.8428 27.747 16.0306C27.747 17.2185 26.7832 18.1819 25.5948 18.1819C25.1806 18.1819 24.8448 18.5177 24.8448 18.9319C24.8448 19.3461 25.1806 19.6819 25.5948 19.6819C27.6115 19.6819 29.247 18.0471 29.247 16.0306ZM28.4958 21.555C28.0156 21.4466 27.5024 21.3725 26.9806 21.3365C26.5674 21.308 26.2093 21.6199 26.1808 22.0331C26.1523 22.4464 26.4642 22.8045 26.8774 22.833C27.3239 22.8638 27.7615 22.9269 28.187 23.0227C28.8487 23.1525 29.2801 23.3678 29.3872 23.5921C29.4677 23.7615 29.4677 23.9606 29.3864 24.132C29.2807 24.3541 28.8529 24.5682 28.2006 24.7024C27.7949 24.7858 27.5336 25.1823 27.6171 25.5881C27.7005 25.9938 28.097 26.2551 28.5028 26.1716C29.5809 25.9499 30.3708 25.5546 30.7413 24.7756C31.016 24.1964 31.016 23.5247 30.7414 22.947C30.3682 22.1651 29.5648 21.7643 28.4958 21.555ZM13.7039 22.0331C13.6754 21.6199 13.3174 21.308 12.9041 21.3365C12.3823 21.3725 11.8692 21.4466 11.3684 21.5593L11.1619 21.603C10.2143 21.8195 9.49137 22.2174 9.14435 22.9469C8.8685 23.5241 8.8685 24.197 9.14464 24.7762C9.51357 25.5544 10.3033 25.9498 11.382 26.1716C11.7877 26.2551 12.1843 25.9938 12.2677 25.5881C12.3511 25.1823 12.0898 24.7858 11.6841 24.7024C11.032 24.5683 10.6047 24.3543 10.4993 24.1321C10.4173 23.96 10.4173 23.7621 10.4983 23.5925C10.6053 23.3676 11.0363 23.1525 11.6771 23.027L12.0104 22.9588C12.3426 22.8974 12.6724 22.8561 13.0073 22.833C13.4206 22.8045 13.7324 22.4464 13.7039 22.0331ZM13.167 25.1845C13.167 22.7986 15.635 21.9595 19.9377 21.9595L20.2425 21.961C24.3655 21.9997 26.7084 22.8407 26.7084 25.1671C26.7084 27.4388 24.4688 28.3087 20.5397 28.3863L19.9377 28.3921C15.6251 28.3921 13.167 27.5678 13.167 25.1845ZM25.2084 25.1671C25.2084 24.0566 23.4278 23.4595 19.9377 23.4595C16.451 23.4595 14.667 24.0661 14.667 25.1845C14.667 26.2952 16.447 26.8921 19.9377 26.8921C23.4234 26.8921 25.2084 26.2851 25.2084 25.1671Z" fill="white"/>
</svg>
