<svg width="408" height="427" viewBox="0 0 408 427" fill="none" xmlns="http://www.w3.org/2000/svg">
<g clip-path="url(#clip0_311_111)">
<path d="M379.173 345.253L204.552 404.979C204.551 404.98 204.549 404.98 204.548 404.981C204.302 405.063 204.035 405.045 203.799 404.927C203.559 404.807 203.359 404.586 203.261 404.297C203.261 404.296 203.26 404.295 203.26 404.294L121.686 160.031C121.685 160.031 121.685 160.03 121.685 160.03C121.588 159.737 121.611 159.418 121.744 159.146L117.252 156.949L121.744 159.146C121.876 158.876 122.098 158.688 122.345 158.602C122.346 158.602 122.347 158.602 122.348 158.601L296.968 98.8758C296.969 98.8755 296.969 98.8753 296.97 98.8751C297.216 98.7918 297.485 98.8093 297.722 98.9281C297.961 99.0478 298.161 99.2677 298.259 99.5565C298.259 99.5579 298.26 99.5592 298.26 99.5606L379.835 343.823C379.835 343.825 379.836 343.826 379.836 343.828C379.932 344.119 379.909 344.438 379.777 344.709C379.645 344.979 379.422 345.167 379.174 345.253C379.174 345.253 379.173 345.253 379.173 345.253Z" fill="black" stroke="white" stroke-width="10"/>
<path d="M333.995 415.407H149.671C149.416 415.407 149.158 415.305 148.959 415.103C148.758 414.9 148.635 414.612 148.634 414.299V156.459C148.635 156.147 148.758 155.859 148.959 155.655C149.158 155.454 149.415 155.352 149.67 155.351H333.997C334.252 155.352 334.509 155.454 334.708 155.655C334.909 155.859 335.033 156.148 335.033 156.461V414.297C335.033 414.611 334.909 414.899 334.708 415.103C334.508 415.305 334.251 415.407 333.995 415.407Z" fill="black" stroke="white" stroke-width="10"/>
<path d="M294.731 223.494H172.982C171.957 223.494 170.973 223.082 170.248 222.348C169.523 221.614 169.115 220.619 169.115 219.581C169.115 218.543 169.523 217.547 170.248 216.813C170.973 216.079 171.957 215.667 172.982 215.667H294.731C295.757 215.667 296.741 216.079 297.466 216.813C298.191 217.547 298.599 218.543 298.599 219.581C298.599 220.619 298.191 221.614 297.466 222.348C296.741 223.082 295.757 223.494 294.731 223.494Z" fill="white"/>
<path d="M310.684 236.703H172.982C172.475 236.703 171.972 236.602 171.503 236.405C171.033 236.208 170.607 235.92 170.248 235.557C169.889 235.193 169.604 234.762 169.41 234.287C169.215 233.812 169.115 233.303 169.115 232.789C169.115 232.275 169.215 231.766 169.41 231.291C169.604 230.817 169.889 230.385 170.248 230.022C170.607 229.658 171.033 229.37 171.503 229.173C171.972 228.977 172.475 228.875 172.982 228.875H310.684C311.709 228.875 312.693 229.288 313.418 230.022C314.144 230.756 314.551 231.751 314.551 232.789C314.551 233.827 314.144 234.823 313.418 235.557C312.693 236.291 311.709 236.703 310.684 236.703Z" fill="white"/>
<path d="M294.731 282.688H172.983C171.958 282.687 170.975 282.274 170.251 281.541C169.526 280.807 169.12 279.812 169.12 278.775C169.12 277.738 169.526 276.743 170.251 276.009C170.975 275.275 171.958 274.862 172.983 274.861H294.731C295.757 274.861 296.741 275.273 297.466 276.007C298.191 276.741 298.599 277.737 298.599 278.775C298.599 279.813 298.191 280.808 297.466 281.542C296.741 282.276 295.757 282.688 294.731 282.688Z" fill="#6C63FF"/>
<path d="M310.684 295.897H172.983C171.958 295.896 170.975 295.483 170.251 294.749C169.526 294.016 169.12 293.021 169.12 291.984C169.12 290.946 169.526 289.951 170.251 289.218C170.975 288.484 171.958 288.071 172.983 288.07H310.684C311.71 288.07 312.693 288.482 313.418 289.216C314.144 289.95 314.551 290.946 314.551 291.984C314.551 293.021 314.144 294.017 313.418 294.751C312.693 295.485 311.71 295.897 310.684 295.897Z" fill="white"/>
<path d="M294.731 341.883H172.983C171.958 341.882 170.975 341.469 170.251 340.735C169.526 340.001 169.12 339.006 169.12 337.969C169.12 336.932 169.526 335.937 170.251 335.203C170.975 334.469 171.958 334.057 172.983 334.055H294.731C295.757 334.055 296.741 334.468 297.466 335.202C298.191 335.936 298.599 336.931 298.599 337.969C298.599 339.007 298.191 340.003 297.466 340.736C296.741 341.47 295.757 341.883 294.731 341.883Z" fill="#3F8CFF"/>
<path d="M310.684 355.091H172.982C171.957 355.091 170.973 354.679 170.248 353.945C169.523 353.211 169.115 352.216 169.115 351.178C169.115 350.14 169.523 349.144 170.248 348.41C170.973 347.676 171.957 347.264 172.982 347.264H310.684C311.709 347.264 312.693 347.676 313.418 348.41C314.144 349.144 314.551 350.14 314.551 351.178C314.551 352.216 314.144 353.211 313.418 353.945C312.693 354.679 311.709 355.091 310.684 355.091Z" fill="white"/>
<path d="M98.6781 268.172H70.69C70.1143 268.171 69.5624 267.939 69.1553 267.527C68.7482 267.115 68.5192 266.557 68.5186 265.974V253.765C68.5186 249.427 70.2217 245.265 73.2533 242.197C76.2849 239.129 80.3967 237.406 84.6841 237.406C88.9714 237.406 93.0832 239.129 96.1148 242.197C99.1464 245.265 100.85 249.427 100.85 253.765V265.974C100.849 266.557 100.62 267.115 100.213 267.527C99.8058 267.939 99.2538 268.171 98.6781 268.172Z" fill="#242635"/>
<path d="M141.876 331.887C141.167 331.85 140.476 331.656 139.849 331.318C139.223 330.981 138.678 330.509 138.251 329.935C137.825 329.362 137.528 328.7 137.381 327.998C137.234 327.296 137.242 326.569 137.403 325.87L122.817 316.56L130.981 312.82L143.58 322.234C144.722 322.585 145.698 323.349 146.322 324.38C146.946 325.41 147.174 326.637 146.964 327.827C146.754 329.016 146.12 330.087 145.182 330.835C144.245 331.584 143.068 331.958 141.876 331.887Z" fill="#FFB8B8"/>
<path d="M131.811 324.292C131.315 324.245 130.843 324.056 130.45 323.746L90.3261 292.271L85.1527 282.959C84.6523 282.064 84.4276 281.037 84.5075 280.011C84.5873 278.986 84.968 278.007 85.6008 277.202C86.0388 276.642 86.5864 276.18 87.2092 275.844C87.832 275.508 88.5167 275.306 89.2202 275.251C89.9238 275.196 90.631 275.288 91.2976 275.522C91.9643 275.756 92.5759 276.128 93.0941 276.612L137.817 313.321C138.106 313.519 138.354 313.773 138.545 314.069C138.735 314.365 138.866 314.697 138.928 315.045C138.991 315.392 138.984 315.749 138.908 316.094C138.833 316.439 138.69 316.765 138.488 317.054L134.2 323.181C133.996 323.474 133.736 323.723 133.434 323.91C133.132 324.098 132.795 324.222 132.445 324.273C132.235 324.305 132.022 324.311 131.811 324.292Z" fill="#242635"/>
<path d="M37.25 414.406L42.7342 416.652L53.9029 396.313L45.809 392.999L37.25 414.406Z" fill="#FFB8B8"/>
<path d="M36.5757 412.021L47.3757 416.444L47.3761 416.444C48.28 416.814 49.1029 417.361 49.798 418.053C50.4931 418.745 51.0466 419.568 51.4271 420.477C51.8076 421.385 52.0075 422.361 52.0155 423.348C52.0234 424.334 51.8393 425.313 51.4735 426.228L51.383 426.454L33.7002 419.213L36.5757 412.021Z" fill="#242635"/>
<path d="M101.152 420.65L107.068 420.65L109.883 397.557L101.151 397.557L101.152 420.65Z" fill="#FFB8B8"/>
<path d="M99.6436 418.696L111.294 418.695H111.295C112.27 418.695 113.235 418.889 114.136 419.267C115.037 419.645 115.855 420.198 116.545 420.896C117.234 421.593 117.781 422.422 118.154 423.333C118.527 424.245 118.719 425.222 118.719 426.209V426.453L99.6439 426.454L99.6436 418.696Z" fill="#242635"/>
<path d="M106.027 407.595C103.677 407.595 101.373 406.625 100.101 405.981C99.7716 405.816 99.484 405.576 99.2605 405.28C99.0371 404.985 98.8838 404.641 98.8126 404.276L86.3428 340.651L53.9923 401.905C53.7016 402.456 53.2128 402.873 52.6268 403.07C45.6593 405.426 41.8594 401.719 40.5487 400.017C40.2821 399.667 40.1158 399.251 40.0683 398.812C40.0208 398.373 40.0938 397.929 40.2794 397.53L55.2621 364.59L64.3214 333.301L73.4784 310.402L73.6782 310.423L104.298 313.685L108.022 334.408L111.771 403.409C111.805 403.959 111.65 404.504 111.333 404.952C110.733 405.802 109.935 406.488 109.009 406.95C108.083 407.411 107.058 407.633 106.027 407.595Z" fill="#242635"/>
<path d="M88.6738 267.986C95.2194 267.986 100.526 262.616 100.526 255.992C100.526 249.368 95.2194 243.998 88.6738 243.998C82.1281 243.998 76.8218 249.368 76.8218 255.992C76.8218 262.616 82.1281 267.986 88.6738 267.986Z" fill="#FFB8B8"/>
<path d="M92.7957 323.211C87.6358 323.211 81.2515 320.155 73.7537 314.084L73.626 313.98L78.9271 271.658L79.1746 271.649C86.7571 271.372 92.9275 273.32 98.0362 277.62L98.0801 277.666L102.223 283.056L102.224 283.154L102.808 316.259L102.794 316.305C102.245 317.82 101.36 319.188 100.206 320.302C99.0529 321.416 97.6621 322.247 96.1411 322.731C95.0552 323.056 93.928 323.218 92.7957 323.211Z" fill="#6C63FF"/>
<path d="M100.427 342.997C99.8481 342.995 99.2854 342.801 98.8262 342.444C98.3671 342.086 98.0371 341.586 97.8872 341.019L90.6101 313.139L86 338.54C85.879 339.214 85.5048 339.814 84.956 340.215C84.4071 340.616 83.7262 340.787 83.0559 340.691L62.9817 337.856C62.5991 337.802 62.2329 337.663 61.9094 337.449C61.5859 337.236 61.313 336.952 61.1103 336.619C60.9075 336.287 60.7798 335.913 60.7364 335.524C60.6929 335.136 60.7348 334.742 60.859 334.372L71.0132 304.084L68.7401 286.339C68.506 284.511 68.6501 282.655 69.1631 280.887C69.676 279.119 70.5467 277.478 71.7198 276.069C72.8929 274.66 74.3428 273.513 75.9774 272.701C77.6119 271.89 79.3954 271.431 81.2145 271.354L81.418 271.346L91.0734 294.912L92.6091 288.696L95.0123 275.315L95.3712 275.526C98.764 277.505 101.554 280.391 103.436 283.866C105.318 287.342 106.219 291.274 106.042 295.234L105.433 309.405L110.828 338.34C110.956 339.031 110.808 339.746 110.417 340.327C110.025 340.908 109.422 341.309 108.74 341.442L100.916 342.95C100.755 342.981 100.591 342.997 100.427 342.997Z" fill="#242635"/>
<path d="M104.674 254.986H87.5601L87.3846 252.5L86.5071 254.986H83.8719L83.5241 250.058L81.785 254.986H76.686V254.742C76.6898 251.311 78.0383 248.022 80.4356 245.596C82.8329 243.17 86.0833 241.805 89.4736 241.801H91.8864C95.2768 241.805 98.5271 243.17 100.924 245.596C103.322 248.022 104.67 251.311 104.674 254.742V254.986Z" fill="#242635"/>
<g filter="url(#filter0_d_311_111)">
<path d="M384.595 427H0.482553C0.354572 427 0.231832 426.948 0.141336 426.857C0.0508399 426.765 0 426.641 0 426.512C0 426.382 0.0508399 426.258 0.141336 426.166C0.231832 426.075 0.354572 426.023 0.482553 426.023H384.595C384.723 426.023 384.845 426.075 384.936 426.166C385.026 426.258 385.077 426.382 385.077 426.512C385.077 426.641 385.026 426.765 384.936 426.857C384.845 426.948 384.723 427 384.595 427Z" fill="#CCCCCC"/>
</g>
<path d="M93.2847 313.256C93.2839 314.039 93.4495 314.813 93.7703 315.526C94.091 316.239 94.5595 316.874 95.1439 317.388C95.7282 317.901 96.4149 318.282 97.1573 318.503C97.8997 318.725 98.6805 318.782 99.4467 318.672C100.154 320.314 101.319 321.711 102.8 322.693C104.28 323.674 106.012 324.197 107.782 324.197C108.975 324.197 110.158 323.959 111.261 323.496C112.364 323.034 113.366 322.356 114.21 321.502C115.054 320.648 115.724 319.634 116.181 318.517C116.638 317.401 116.873 316.205 116.873 314.996V307.025C116.873 304.973 115.229 304.286 113.202 304.286H102.361C100.334 304.286 98.6903 304.973 98.6903 307.025V307.785C97.2571 307.787 95.8831 308.364 94.8697 309.389C93.8563 310.415 93.2863 311.805 93.2847 313.256ZM94.7589 313.256C94.7601 312.201 95.1747 311.19 95.9117 310.444C96.6487 309.698 97.648 309.278 98.6903 309.277V314.996C98.6903 315.746 98.7806 316.493 98.9594 317.221C98.87 317.227 98.7811 317.234 98.6903 317.234C97.648 317.233 96.6487 316.814 95.9117 316.068C95.1747 315.322 94.7601 314.311 94.7589 313.256H94.7589Z" fill="#3F8CFF"/>
<path d="M95.6061 312.736C95.0975 312.232 94.4864 311.846 93.8158 311.605C93.1452 311.364 92.4315 311.274 91.7249 311.342C91.0184 311.409 90.3361 311.633 89.7263 311.996C89.1164 312.359 88.5938 312.853 88.1952 313.444L71.5205 308.813L74.3515 317.428L89.752 320.505C90.7838 321.122 92.0014 321.338 93.1741 321.11C94.3468 320.883 95.3931 320.228 96.1147 319.27C96.8363 318.313 97.1831 317.119 97.0894 315.914C96.9956 314.71 96.4679 313.579 95.6061 312.736L95.6061 312.736Z" fill="#FFB8B8"/>
<path d="M66.3213 322.563C73.7126 315.114 73.6211 313.169 69.3778 318.167L52.0305 309.283C51.6335 308.706 52.0897 302.376 52.0305 301.689C51.9714 301.002 52.0945 300.314 52.3882 299.691C54.8759 294.374 60.8831 281.682 62.9314 278.676C64.4415 276.408 66.7162 274.72 69.3778 273.891L69.4449 273.874L74.1733 275.767L71.5785 290.45L63.1069 301.466L75.2385 306.507C75.2385 297.007 79.4585 305.23 79.403 305.674C79.3475 306.118 88.8425 312.077 86.0662 309.283L83.0122 324.553C93.3328 325.343 73.9664 322.042 73.7126 322.112C73.4588 322.181 73.7126 317.335 66.4371 322.584C73.6562 322.384 66.3595 322.571 66.3213 322.563Z" fill="#242635"/>
<path d="M107.762 306.802C111.493 306.802 114.517 306.364 114.517 305.825C114.517 305.286 111.493 304.848 107.762 304.848C104.031 304.848 101.006 305.286 101.006 305.825C101.006 306.364 104.031 306.802 107.762 306.802Z" fill="#2F2E41"/>
</g>
<g filter="url(#filter1_d_311_111)">
<path d="M282.947 51.2529L332.508 33.9726L324.932 85.9102L282.947 51.2529Z" stroke="url(#paint0_linear_311_111)" stroke-width="10"/>
</g>
<g filter="url(#filter2_d_311_111)">
<path d="M369.033 149.27L378.691 123.091L397.445 143.753L369.033 149.27Z" stroke="url(#paint1_linear_311_111)" stroke-width="5"/>
</g>
<defs>
<filter id="filter0_d_311_111" x="-3" y="426.023" width="393.077" height="8.97681" filterUnits="userSpaceOnUse" color-interpolation-filters="sRGB">
<feFlood flood-opacity="0" result="BackgroundImageFix"/>
<feColorMatrix in="SourceAlpha" type="matrix" values="0 0 0 0 0 0 0 0 0 0 0 0 0 0 0 0 0 0 127 0" result="hardAlpha"/>
<feOffset dx="1" dy="4"/>
<feGaussianBlur stdDeviation="2"/>
<feColorMatrix type="matrix" values="0 0 0 0 1 0 0 0 0 1 0 0 0 0 1 0 0 0 0.5 0"/>
<feBlend mode="normal" in2="BackgroundImageFix" result="effect1_dropShadow_311_111"/>
<feBlend mode="normal" in="SourceGraphic" in2="effect1_dropShadow_311_111" result="shape"/>
</filter>
<filter id="filter1_d_311_111" x="268.915" y="26.5374" width="73.7305" height="76.8823" filterUnits="userSpaceOnUse" color-interpolation-filters="sRGB">
<feFlood flood-opacity="0" result="BackgroundImageFix"/>
<feColorMatrix in="SourceAlpha" type="matrix" values="0 0 0 0 0 0 0 0 0 0 0 0 0 0 0 0 0 0 127 0" result="hardAlpha"/>
<feOffset dy="4"/>
<feGaussianBlur stdDeviation="2"/>
<feColorMatrix type="matrix" values="0 0 0 0 0 0 0 0 0 0 0 0 0 0 0 0 0 0 0.25 0"/>
<feBlend mode="normal" in2="BackgroundImageFix" result="effect1_dropShadow_311_111"/>
<feBlend mode="normal" in="SourceGraphic" in2="effect1_dropShadow_311_111" result="shape"/>
</filter>
<filter id="filter2_d_311_111" x="361.15" y="118.359" width="45.1299" height="42.2112" filterUnits="userSpaceOnUse" color-interpolation-filters="sRGB">
<feFlood flood-opacity="0" result="BackgroundImageFix"/>
<feColorMatrix in="SourceAlpha" type="matrix" values="0 0 0 0 0 0 0 0 0 0 0 0 0 0 0 0 0 0 127 0" result="hardAlpha"/>
<feOffset dy="4"/>
<feGaussianBlur stdDeviation="2"/>
<feColorMatrix type="matrix" values="0 0 0 0 0 0 0 0 0 0 0 0 0 0 0 0 0 0 0.25 0"/>
<feBlend mode="normal" in2="BackgroundImageFix" result="effect1_dropShadow_311_111"/>
<feBlend mode="normal" in="SourceGraphic" in2="effect1_dropShadow_311_111" result="shape"/>
</filter>
<linearGradient id="paint0_linear_311_111" x1="338.645" y1="26.5375" x2="288.127" y2="87.7376" gradientUnits="userSpaceOnUse">
<stop stop-color="#EA61ED"/>
<stop offset="1" stop-color="#84DDF0" stop-opacity="0"/>
</linearGradient>
<linearGradient id="paint1_linear_311_111" x1="377.773" y1="118.359" x2="385.696" y2="159.168" gradientUnits="userSpaceOnUse">
<stop stop-color="#EA61ED"/>
<stop offset="1" stop-color="#84DDF0" stop-opacity="0"/>
</linearGradient>
<clipPath id="clip0_311_111">
<rect width="391.463" height="339.823" fill="white" transform="translate(0 87.1768)"/>
</clipPath>
</defs>
</svg>
