<svg width="811" height="499" viewBox="0 0 811 499" fill="none" xmlns="http://www.w3.org/2000/svg">
<g filter="url(#filter0_d_305_0)">
<path d="M83.1973 361.75L405.5 18.2677L727.803 361.75H83.1973Z" stroke="url(#paint0_linear_305_0)" stroke-width="25"/>
</g>
<path d="M164.569 475.7C227.291 475.7 278.137 471.944 278.137 467.311C278.137 462.678 227.291 458.922 164.569 458.922C101.846 458.922 51 462.678 51 467.311C51 471.944 101.846 475.7 164.569 475.7Z" fill="#E6E6E6"/>
<path d="M137.81 175.58C157.574 167.404 182.191 172.584 206.232 176.18C206.456 171.826 209.168 166.527 206.327 163.489C202.876 159.799 203.194 155.922 205.27 152.022C210.581 142.05 202.973 131.439 195.291 122.616C193.559 120.632 191.371 119.073 188.904 118.065C186.436 117.058 183.76 116.631 181.091 116.819L166.86 117.808C163.398 118.048 160.093 119.312 157.389 121.429C154.684 123.546 152.709 126.416 151.728 129.654C148.33 134.149 146.511 138.631 147.656 143.089C142.567 146.472 141.712 150.555 143.999 155.159C145.938 158.057 145.917 160.878 143.91 163.621C141.275 167.119 139.256 171.018 137.937 175.16L137.81 175.58Z" fill="#17192B"/>
<path d="M607.493 423.431H204.671C201.089 423.431 197.653 422.047 195.12 419.584C192.587 417.12 191.164 413.779 191.164 410.295C337.187 393.79 480.466 393.79 621 410.295C621 413.779 619.577 417.12 617.044 419.584C614.511 422.047 611.076 423.431 607.493 423.431Z" fill="white"/>
<path d="M621 411.068L191.164 410.295L240.981 328.772L241.219 328.386V148.719C241.219 146.539 241.66 144.379 242.518 142.364C243.376 140.35 244.634 138.519 246.219 136.977C247.805 135.435 249.687 134.212 251.759 133.377C253.831 132.543 256.051 132.113 258.293 132.114H551.487C553.73 132.113 555.95 132.543 558.022 133.377C560.093 134.212 561.976 135.435 563.561 136.977C565.147 138.519 566.404 140.35 567.262 142.364C568.12 144.379 568.562 146.539 568.562 148.719V329.622L621 411.068Z" fill="black"/>
<path d="M259.145 339.977C258.69 339.978 258.244 340.105 257.86 340.344C257.476 340.583 257.171 340.924 256.98 341.326L241.63 373.781C241.463 374.134 241.39 374.522 241.417 374.91C241.445 375.298 241.573 375.673 241.788 376C242.004 376.328 242.301 376.597 242.651 376.784C243.002 376.97 243.395 377.068 243.795 377.068H566.598C567.004 377.068 567.403 376.967 567.758 376.774C568.113 376.582 568.411 376.305 568.625 375.968C568.839 375.632 568.96 375.249 568.978 374.854C568.997 374.459 568.911 374.066 568.729 373.713L552.044 341.258C551.847 340.873 551.543 340.548 551.167 340.322C550.79 340.095 550.355 339.976 549.913 339.977H259.145Z" fill="#CCCCCC"/>
<path d="M404.89 141C406.865 141 408.466 139.443 408.466 137.523C408.466 135.602 406.865 134.045 404.89 134.045C402.916 134.045 401.315 135.602 401.315 137.523C401.315 139.443 402.916 141 404.89 141Z" fill="white"/>
<path d="M373.162 383.25C372.638 383.25 372.128 383.419 371.713 383.729C371.297 384.039 370.997 384.473 370.86 384.965L367.01 398.874C366.915 399.218 366.902 399.578 366.973 399.927C367.044 400.276 367.197 400.605 367.419 400.887C367.642 401.169 367.928 401.398 368.256 401.556C368.584 401.713 368.945 401.795 369.311 401.795H442.537C442.917 401.795 443.292 401.707 443.629 401.537C443.967 401.368 444.258 401.123 444.479 400.821C444.699 400.52 444.842 400.172 444.896 399.807C444.95 399.441 444.913 399.068 444.789 398.719L439.839 384.809C439.676 384.354 439.372 383.959 438.968 383.68C438.565 383.4 438.082 383.25 437.586 383.25H373.162Z" fill="#2F2E41"/>
<path d="M568.561 325.682V328.772H240.98L241.227 328.386V325.682H568.561Z" fill="#2F2E41"/>
<path d="M559.425 198.182C590.141 198.182 615.041 173.964 615.041 144.091C615.041 114.217 590.141 90 559.425 90C528.708 90 503.808 114.217 503.808 144.091C503.808 173.964 528.708 198.182 559.425 198.182Z" fill="#17192B"/>
<path d="M582.466 167.659H536.384C535.541 167.658 534.733 167.332 534.137 166.753C533.541 166.173 533.206 165.388 533.206 164.568V137.523C533.206 136.703 533.542 135.917 534.137 135.338C534.733 134.759 535.541 134.433 536.384 134.432H582.466C583.308 134.433 584.116 134.759 584.712 135.338C585.308 135.917 585.643 136.703 585.644 137.523V164.568C585.643 165.388 585.308 166.173 584.712 166.753C584.116 167.332 583.308 167.658 582.466 167.659ZM536.384 137.523V164.568H582.468L582.466 137.523L536.384 137.523Z" fill="white"/>
<path d="M573.726 137.523H545.123V125.159C545.123 116.204 551.138 109.705 559.424 109.705C567.711 109.705 573.726 116.204 573.726 125.159L573.726 137.523ZM548.301 134.432H570.548V125.159C570.548 117.88 565.974 112.796 559.425 112.796C552.875 112.796 548.301 117.88 548.301 125.159L548.301 134.432Z" fill="white"/>
<path d="M559.425 153.364C561.18 153.364 562.603 151.98 562.603 150.273C562.603 148.566 561.18 147.182 559.425 147.182C557.669 147.182 556.247 148.566 556.247 150.273C556.247 151.98 557.669 153.364 559.425 153.364Z" fill="white"/>
<path d="M520.6 262.775H291.565C290.44 262.774 289.362 262.339 288.567 261.566C287.772 260.792 287.325 259.744 287.323 258.65V203.395C287.325 202.301 287.772 201.253 288.567 200.48C289.362 199.706 290.44 199.271 291.565 199.27H520.6C521.724 199.271 522.802 199.706 523.597 200.48C524.392 201.253 524.84 202.301 524.841 203.395V258.65C524.84 259.744 524.392 260.792 523.597 261.566C522.802 262.339 521.724 262.774 520.6 262.775ZM291.565 200.92C290.89 200.921 290.243 201.182 289.766 201.646C289.289 202.11 289.021 202.739 289.02 203.395V258.65C289.021 259.306 289.289 259.936 289.766 260.4C290.243 260.864 290.89 261.125 291.565 261.125H520.6C521.274 261.125 521.921 260.864 522.398 260.4C522.875 259.936 523.144 259.306 523.144 258.65V203.395C523.144 202.739 522.875 202.11 522.398 201.646C521.921 201.182 521.274 200.921 520.6 200.92L291.565 200.92Z" fill="white"/>
<path d="M327.152 245.706C336.694 245.706 344.429 238.182 344.429 228.902C344.429 219.622 336.694 212.099 327.152 212.099C317.61 212.099 309.875 219.622 309.875 228.902C309.875 238.182 317.61 245.706 327.152 245.706Z" fill="white"/>
<path d="M367.054 217.7C366.675 217.7 366.301 217.772 365.951 217.912C365.601 218.053 365.283 218.259 365.015 218.519C364.747 218.779 364.535 219.088 364.39 219.428C364.245 219.768 364.17 220.133 364.17 220.501C364.17 220.869 364.245 221.234 364.39 221.574C364.535 221.914 364.747 222.223 365.015 222.483C365.283 222.743 365.601 222.949 365.951 223.089C366.301 223.23 366.675 223.302 367.054 223.301H502.803C503.567 223.301 504.299 223.006 504.839 222.481C505.379 221.956 505.682 221.244 505.682 220.501C505.682 219.758 505.379 219.046 504.839 218.521C504.299 217.995 503.567 217.7 502.803 217.7H367.054Z" fill="white"/>
<path d="M367.054 234.503C366.29 234.503 365.558 234.798 365.018 235.324C364.478 235.849 364.174 236.561 364.174 237.304C364.174 238.047 364.478 238.759 365.018 239.284C365.558 239.809 366.29 240.104 367.054 240.104H425.467C426.231 240.104 426.963 239.809 427.503 239.284C428.043 238.759 428.346 238.047 428.346 237.304C428.346 236.561 428.043 235.849 427.503 235.324C426.963 234.798 426.231 234.503 425.467 234.503H367.054Z" fill="white"/>
<path d="M240.417 235.636L198.078 257.528L197.542 239.285C211.361 237.041 224.509 233.135 236.665 226.775L241.093 216.135C241.576 214.976 242.36 213.959 243.369 213.183C244.378 212.407 245.577 211.9 246.848 211.712C248.12 211.523 249.419 211.659 250.62 212.106C251.821 212.553 252.882 213.297 253.698 214.263C254.893 215.677 255.49 217.48 255.368 219.306C255.247 221.133 254.417 222.846 253.045 224.099L240.417 235.636Z" fill="#FFB8B8"/>
<path d="M136.966 362.032C136.657 360.93 136.591 359.777 136.773 358.649C136.955 357.521 137.381 356.443 138.022 355.486L147.323 341.604C149.522 338.321 152.898 335.949 156.794 334.95C160.69 333.95 164.829 334.393 168.408 336.194C164.5 342.665 165.044 348.342 169.758 353.275C162.441 356.749 155.677 361.233 149.678 366.589C148.583 367.315 147.325 367.776 146.01 367.934C144.694 368.091 143.359 367.941 142.115 367.495C140.871 367.049 139.755 366.321 138.859 365.371C137.964 364.42 137.315 363.276 136.966 362.032Z" fill="#2F2E41"/>
<path d="M157.347 447.257H142.877C129.884 360.644 116.66 273.788 155.739 241.37L201.83 248.667L195.934 286.717L170.209 315.385L157.347 447.257Z" fill="#17192B"/>
<path d="M170.067 466.878C168.934 467.178 167.749 467.242 166.589 467.065C165.429 466.888 164.321 466.474 163.337 465.851L147.625 463.797C144.249 461.658 141.81 458.375 140.782 454.586C139.754 450.797 140.21 446.771 142.061 443.29C148.715 447.091 154.551 446.561 159.624 441.976C163.207 449.014 169.112 448.585 174.752 454.514C175.498 455.579 175.973 456.802 176.135 458.082C176.297 459.361 176.142 460.66 175.684 461.87C175.226 463.079 174.477 464.165 173.5 465.036C172.523 465.907 171.346 466.539 170.067 466.878Z" fill="#2F2E41"/>
<path d="M191.647 183.513L164.85 177.258C169.301 168.398 169.667 158.54 167.53 148.069L185.752 147.548C186.323 160.568 188.05 172.733 191.647 183.513Z" fill="#FFB8B8"/>
<path d="M199.012 264.361C179.504 277.289 165.721 264.804 155.203 245.54C156.665 233.752 154.298 219.646 149.915 204.318C147.966 197.558 148.694 190.332 151.955 184.068C155.216 177.803 160.773 172.956 167.53 170.482L190.575 179.864C210.143 195.377 213.995 212.18 206.653 229.903L199.012 264.361Z" fill="#29384F"/>
<path d="M142.876 196.544L121.439 207.49L159.49 229.382L164.785 242.083C165.138 242.931 165.31 243.84 165.291 244.755C165.271 245.669 165.06 246.57 164.671 247.403C164.282 248.236 163.722 248.983 163.026 249.598C162.33 250.214 161.513 250.685 160.624 250.983C159.613 251.322 158.535 251.429 157.475 251.295C156.414 251.161 155.4 250.791 154.512 250.212C153.623 249.634 152.885 248.863 152.354 247.96C151.823 247.058 151.514 246.048 151.451 245.01L150.915 236.158L102.552 220.636C100.923 220.113 99.4373 219.236 98.2078 218.072C96.9783 216.908 96.0373 215.487 95.4561 213.916C94.6089 211.628 94.5658 209.13 95.3335 206.815C96.1012 204.5 97.6364 202.498 99.6988 201.122L138.589 175.173L142.876 196.544Z" fill="#FFB8B8"/>
<path d="M164.314 198.629C155.373 194.818 147.243 198.958 136.981 202.277L135.374 174.652C145.563 169.37 155.278 167.946 164.314 172.046L164.314 198.629Z" fill="#29384F"/>
<path d="M179.109 160.279C189 166.5 192 166.5 196 150C196 140.81 195.449 129 186 129C176.551 129 162 134.45 162 143.639C162 152.829 169.66 160.279 179.109 160.279Z" fill="#FFB8B8"/>
<path d="M180 129C163.061 130.614 166.249 163.672 158 156L150 132.931L183.158 118L180 129Z" fill="#17192B"/>
<path d="M242.345 343.881C240.938 346.162 238.951 348.053 236.576 349.373C234.2 350.692 231.516 351.396 228.781 351.416L166.994 351.871L164.314 336.756L191.647 328.937L168.601 311.736L193.79 283.069L239.541 324.541C242.215 326.964 243.953 330.208 244.463 333.728C244.973 337.248 244.226 340.832 242.345 343.881Z" fill="#17192B"/>
<defs>
<filter id="filter0_d_305_0" x="50.3267" y="0" width="710.347" height="382.25" filterUnits="userSpaceOnUse" color-interpolation-filters="sRGB">
<feFlood flood-opacity="0" result="BackgroundImageFix"/>
<feColorMatrix in="SourceAlpha" type="matrix" values="0 0 0 0 0 0 0 0 0 0 0 0 0 0 0 0 0 0 127 0" result="hardAlpha"/>
<feOffset dy="4"/>
<feGaussianBlur stdDeviation="2"/>
<feColorMatrix type="matrix" values="0 0 0 0 0 0 0 0 0 0 0 0 0 0 0 0 0 0 0.25 0"/>
<feBlend mode="normal" in2="BackgroundImageFix" result="effect1_dropShadow_305_0"/>
<feBlend mode="normal" in="SourceGraphic" in2="effect1_dropShadow_305_0" result="shape"/>
</filter>
<linearGradient id="paint0_linear_305_0" x1="405.5" y1="0" x2="405.5" y2="499" gradientUnits="userSpaceOnUse">
<stop stop-color="#EA61ED"/>
<stop offset="1" stop-color="#84DDF0" stop-opacity="0"/>
</linearGradient>
</defs>
</svg>
