<svg width="40" height="40" viewBox="0 0 40 40" fill="none" xmlns="http://www.w3.org/2000/svg">
<circle cx="20" cy="20" r="20" fill="#418DFF"/>
<path d="M10.8042 23.4152C10.8042 23.4152 10.9462 25.1462 10.9792 25.692C11.0232 26.4241 11.3072 27.2418 11.7812 27.8095C12.4502 28.6143 13.2382 28.8981 14.2902 28.9001C15.5272 28.9021 24.5222 28.9021 25.7592 28.9001C26.8112 28.8981 27.5992 28.6143 28.2682 27.8095C28.7422 27.2418 29.0262 26.4241 29.0712 25.692C29.1032 25.1462 29.2452 23.4152 29.2452 23.4152" stroke="white" stroke-width="1.5" stroke-linecap="round" stroke-linejoin="round"/>
<path d="M16.4961 13.3082V12.9387C16.4961 11.7236 17.4841 10.7395 18.7041 10.7395H21.2861C22.5051 10.7395 23.4941 11.7236 23.4941 12.9387L23.4951 13.3082" stroke="white" stroke-width="1.5" stroke-linecap="round" stroke-linejoin="round"/>
<path d="M19.9951 24.6115V23.3226" stroke="white" stroke-width="1.5" stroke-linecap="round" stroke-linejoin="round"/>
<path fill-rule="evenodd" clip-rule="evenodd" d="M10.75 16.3556V19.8087C12.668 21.0687 14.966 21.9511 17.488 22.3007C17.79 21.2041 18.783 20.4003 19.99 20.4003C21.178 20.4003 22.191 21.2041 22.473 22.3107C25.005 21.9611 27.312 21.0786 29.24 19.8087V16.3556C29.24 14.6684 27.877 13.3098 26.183 13.3098H13.817C12.123 13.3098 10.75 14.6684 10.75 16.3556Z" stroke="white" stroke-width="1.5" stroke-linecap="round" stroke-linejoin="round"/>
</svg>
